<svg aria-hidden="true" style="position: absolute; width: 0; height: 0; overflow: hidden;" version="1.1" xmlns="http://www.w3.org/2000/svg" xmlns:xlink="http://www.w3.org/1999/xlink">
<defs>
<symbol id="icon-facebook" viewBox="0 0 32 32">
<path fill="#f38181" style="fill: var(--color1, #f38181)" d="M23.705 0.013v5.146s-3.793-0.375-4.746 1.074c-0.52 0.799-0.211 3.123-0.257 4.796h5.032c-0.425 1.948-0.729 3.272-1.043 4.971h-4.017v15.988h-6.972c0-4.934 0-10.679 0-15.925h-2.966v-5.034h2.934c0.15-3.685 0.206-7.332 2.035-9.18 2.056-2.086 4.019-1.836 10.001-1.836z"></path>
</symbol>
<symbol id="icon-instagram" viewBox="0 0 32 32">
<path fill="#f38181" style="fill: var(--color1, #f38181)" d="M27.962 31.988h-23.981c-2.207 0-3.997-1.789-3.997-3.997v0-23.981c0-2.207 1.789-3.997 3.997-3.997v0h23.981c2.207 0 3.997 1.789 3.997 3.997v0 23.981c0 2.207-1.789 3.997-3.997 3.997v0zM15.971 9.805c-0 0-0.001 0-0.001 0-2.478 0-4.615 1.456-5.603 3.559l-0.016 0.038c-0.008 0.024-0.017 0.045-0.028 0.064l0.001-0.001c-0.059 0.137-0.11 0.275-0.16 0.412-0.024 0.062-0.050 0.125-0.071 0.187-0.046 0.137-0.084 0.287-0.125 0.425-0.018 0.062-0.037 0.137-0.052 0.2-0.032 0.15-0.055 0.3-0.076 0.462-0.009 0.062-0.021 0.125-0.029 0.187-0.023 0.198-0.036 0.428-0.036 0.661v0.001c0 3.422 2.774 6.195 6.195 6.195s6.195-2.774 6.195-6.195v0c-0.001-0.234-0.014-0.464-0.039-0.691l0.003 0.029c-0.008-0.062-0.020-0.125-0.029-0.187-0.021-0.162-0.044-0.312-0.076-0.462-0.015-0.062-0.035-0.137-0.052-0.2-0.035-0.137-0.072-0.287-0.125-0.425-0.021-0.062-0.047-0.125-0.071-0.187-0.050-0.137-0.101-0.275-0.16-0.412-0.011-0.018-0.020-0.039-0.027-0.060l-0.001-0.002c-1.004-2.14-3.139-3.596-5.615-3.597h-0zM28.362 5.208c0-0.001 0-0.002 0-0.003 0-0.882-0.715-1.596-1.596-1.596-0.001 0-0.002 0-0.003 0h-3.197c-0.001 0-0.002 0-0.003 0-0.882 0-1.596 0.715-1.596 1.596 0 0.001 0 0.002 0 0.003v-0 3.198c0 0.001 0 0.002 0 0.002 0 0.882 0.715 1.596 1.596 1.596 0.001 0 0.002 0 0.003 0h3.197c0.001 0 0.002 0 0.003 0 0.882 0 1.596-0.715 1.596-1.596 0-0.001 0-0.002 0-0.003v0-3.197zM28.362 13.402h-2.948c0.222 0.778 0.35 1.671 0.35 2.594 0 5.408-4.384 9.792-9.792 9.792s-9.792-4.384-9.792-9.792c0-0.923 0.128-1.816 0.366-2.663l-0.017 0.069h-2.948v13.39c0 0.001 0 0.002 0 0.003 0 0.882 0.715 1.596 1.596 1.596 0.001 0 0.002 0 0.003 0h21.583c0.001 0 0.002 0 0.003 0 0.882 0 1.596-0.715 1.596-1.596 0-0.001 0-0.002 0-0.003v0-13.39z"></path>
</symbol>
<symbol id="icon-pinterest" viewBox="0 0 32 32">
<path fill="#f38181" style="fill: var(--color1, #f38181)" d="M14.174 20.771c-0.261 1.049-0.525 2.136-0.797 3.197-0.268 1.217-0.576 2.249-0.95 3.249l0.054-0.163c-0.652 1.69-1.513 3.148-2.574 4.436l0.022-0.027c-0.718 0.824-0.566 0.5-0.782 0.45-0.165-0.037-0.179-0.2-0.211-0.425-0.055-0.61-0.086-1.319-0.086-2.035 0-0.752 0.034-1.496 0.102-2.231l-0.007 0.094c0.115-1.598 0.376-3.080 0.774-4.506l-0.038 0.159c0.605-2.573 1.182-5.096 1.792-7.694 0.063-0.162 0.104-0.35 0.112-0.546l0-0.004c-0.257-0.619-0.446-1.337-0.532-2.086l-0.004-0.037c-0.026-0.223-0.041-0.48-0.041-0.742 0-0.602 0.078-1.185 0.225-1.741l-0.011 0.047c0.268-1.324 1.155-2.395 2.34-2.913l0.026-0.010c0.262-0.091 0.565-0.144 0.88-0.144 0.471 0 0.914 0.118 1.302 0.326l-0.015-0.007c0.556 0.337 0.953 0.887 1.081 1.534l0.002 0.015c0.052 0.286 0.082 0.614 0.082 0.95 0 0.501-0.066 0.987-0.19 1.45l0.009-0.039c-0.334 1.524-0.772 2.673-1.17 4.134-0.181 0.472-0.286 1.018-0.286 1.589 0 0.237 0.018 0.47 0.053 0.698l-0.003-0.025c0.148 0.664 0.528 1.221 1.050 1.593l0.008 0.005c0.503 0.364 1.133 0.582 1.813 0.582 0.076 0 0.152-0.003 0.227-0.008l-0.010 0.001c1.384-0.127 2.572-0.868 3.301-1.945l0.010-0.016c1.168-1.641 1.928-3.647 2.090-5.819l0.002-0.039c0.068-0.527 0.107-1.137 0.107-1.756 0-0.265-0.007-0.529-0.021-0.791l0.002 0.037c-0.059-1.479-0.579-2.826-1.419-3.913l0.012 0.016c-0.803-0.985-1.869-1.727-3.091-2.123l-0.047-0.013c-0.885-0.274-1.903-0.432-2.958-0.432-0.608 0-1.205 0.053-1.784 0.153l0.062-0.009c-2.693 0.411-4.926 2.073-6.117 4.363l-0.022 0.046c-0.659 1.208-1.046 2.645-1.046 4.173 0 0.030 0 0.060 0 0.091l-0-0.005c-0.002 0.052-0.003 0.113-0.003 0.174 0 1.093 0.317 2.113 0.863 2.971l-0.013-0.022c0.166 0.25 0.41 0.462 0.572 0.749 0.040 0.156 0.064 0.334 0.064 0.518 0 0.338-0.078 0.658-0.218 0.943l0.006-0.013c-0.137 0.537-0.152 1.262-0.772 1.274-0.301-0.034-0.573-0.141-0.802-0.303l0.005 0.004c-1.635-1.003-2.772-2.683-3.022-4.64l-0.003-0.032c-0.118-0.607-0.185-1.304-0.185-2.017s0.067-1.411 0.196-2.086l-0.011 0.069c0.684-3.297 2.697-6.027 5.442-7.652l0.054-0.029c1.403-0.837 3.052-1.428 4.813-1.666l0.067-0.007c0.59-0.089 1.283-0.147 1.987-0.162l0.018-0c0.171-0.009 0.371-0.014 0.573-0.014 1.748 0 3.408 0.373 4.907 1.043l-0.076-0.030c1.461 0.655 2.7 1.562 3.714 2.676l0.008 0.009c1.044 1.139 1.834 2.526 2.273 4.063l0.017 0.072c0.292 0.849 0.472 1.829 0.499 2.847l0 0.013c-0.047 1.076-0.185 2.092-0.407 3.076l0.022-0.116c-0.421 3.337-2.201 6.191-4.759 8.033l-0.035 0.024c-1.324 0.865-2.945 1.38-4.686 1.38-0.109 0-0.218-0.002-0.326-0.006l0.016 0c-0.917-0.057-1.763-0.318-2.506-0.739l0.029 0.015c-0.69-0.365-1.25-0.896-1.637-1.543l-0.010-0.019z"></path>
</symbol>
<symbol id="icon-twitter" viewBox="0 0 32 32">
<path fill="#f38181" style="fill: var(--color1, #f38181)" d="M21.439 3.218c0.096-0.005 0.209-0.008 0.323-0.008 1.879 0 3.576 0.781 4.784 2.036l0.002 0.002c1.241-0.206 2.354-0.597 3.368-1.148l-0.056 0.028 0.804-0.443c-0.407 1.229-1.133 2.261-2.080 3.031l-0.012 0.009c-0.205 0.195-0.439 0.363-0.693 0.497l-0.017 0.008v0.012c1.354-0.145 2.592-0.494 3.734-1.015l-0.075 0.031v0.012c-0.611 0.969-1.338 1.797-2.175 2.497l-0.017 0.014c-0.336 0.271-0.673 0.542-1.009 0.8 0.010 0.224 0.015 0.487 0.015 0.751 0 1.205-0.114 2.384-0.333 3.526l0.019-0.117c-1.615 7.249-5.893 12.172-12.663 14.289-1.607 0.478-3.453 0.753-5.363 0.753-1.339 0-2.647-0.135-3.91-0.392l0.125 0.021c-1.476-0.356-2.743-0.782-3.959-1.304l0.16 0.061c-0.723-0.318-1.323-0.635-1.9-0.987l0.070 0.040c-0.19-0.111-0.378-0.234-0.567-0.345 0.431 0.058 0.93 0.091 1.436 0.091 0.221 0 0.441-0.006 0.659-0.019l-0.030 0.001c0.636-0.098 1.259-0.074 1.846-0.197 1.46-0.288 2.759-0.774 3.945-1.438l-0.067 0.034c0.67-0.316 1.246-0.698 1.759-1.151l-0.008 0.007c-0.691-0.002-1.352-0.128-1.963-0.357l0.039 0.013c-1.945-0.672-3.445-2.183-4.087-4.089l-0.013-0.046c0.346 0.067 0.744 0.105 1.151 0.105 0.618 0 1.215-0.088 1.78-0.251l-0.045 0.011c-0.804-0.111-1.521-0.413-2.126-0.858l0.013 0.009c-1.836-1.097-3.047-3.074-3.047-5.334 0-0.067 0.001-0.135 0.003-0.202l-0 0.010c0.222 0.098 0.442 0.209 0.662 0.308 0.389 0.163 0.844 0.296 1.316 0.376l0.037 0.005c0.174 0.063 0.376 0.099 0.585 0.099 0.105 0 0.209-0.009 0.309-0.027l-0.011 0.002h-0.032c-0.325-0.369-0.855-0.628-1.183-1.034-1.011-1.154-1.628-2.676-1.628-4.341 0-0.538 0.064-1.061 0.186-1.562l-0.009 0.045c0.178-0.642 0.415-1.202 0.713-1.722l-0.019 0.036c0.011 0 0.021 0.012 0.032 0.012 0.173 0.255 0.365 0.477 0.581 0.674l0.003 0.003c0.572 0.689 1.203 1.295 1.896 1.826l0.028 0.020c2.201 1.802 4.86 3.131 7.773 3.791l0.127 0.024c0.867 0.229 1.865 0.367 2.893 0.381l0.009 0c-0.114-0.439-0.179-0.942-0.179-1.461 0-0.562 0.077-1.106 0.22-1.622l-0.010 0.042c0.489-1.962 1.841-3.534 3.618-4.316l0.041-0.016c0.409-0.18 0.889-0.333 1.388-0.435l0.047-0.008c0.261-0.037 0.524-0.062 0.786-0.098z"></path>
</symbol>
</defs>
</svg>
